HIERARCHY
ROOT joint_Root
{
	OFFSET 0.0 0.0 0.0
	CHANNELS 6 Xposition Yposition Zposition Zrotation Xrotation Yrotation 
	JOINT Hips
	{
		OFFSET -17.1583 93.1646 452.98
		CHANNELS 6 Xposition Yposition Zposition Zrotation Xrotation Yrotation 
		JOINT Spine
		{
			OFFSET 15.7357 0.0 0.0
			CHANNELS 6 Xposition Yposition Zposition Zrotation Xrotation Yrotation 
			JOINT Chest
			{
				OFFSET 8.98455 -0.406207 0.0
				CHANNELS 6 Xposition Yposition Zposition Zrotation Xrotation Yrotation 
				JOINT Neck
				{
					OFFSET 16.3773 0.0 0.0
					CHANNELS 6 Xposition Yposition Zposition Zrotation Xrotation Yrotation 
					JOINT Head
					{
						OFFSET 6.45672 0.0 0.0
						CHANNELS 6 Xposition Yposition Zposition Zrotation Xrotation Yrotation 
						End Site
						{
							OFFSET 0.0 0.0 0.0
						}
					}
				}
				JOINT Shoulder_L
				{
					OFFSET 12.9942 -0.242716 4.98039
					CHANNELS 6 Xposition Yposition Zposition Zrotation Xrotation Yrotation 
					JOINT UpperArm_L
					{
						OFFSET 5.34809 0.0 0.0
						CHANNELS 6 Xposition Yposition Zposition Zrotation Xrotation Yrotation 
						JOINT LowerArm_L
						{
							OFFSET 24.3286 1.87007e-05 0.0
							CHANNELS 6 Xposition Yposition Zposition Zrotation Xrotation Yrotation 
							JOINT Hand_L
							{
								OFFSET 22.2916 0.0 0.0
								CHANNELS 6 Xposition Yposition Zposition Zrotation Xrotation Yrotation 
								End Site
								{
									OFFSET 0.0 0.0 0.0
								}
							}
						}
					}
				}
				JOINT Shoulder_R
				{
					OFFSET 12.9945 -0.242716 -4.98039
					CHANNELS 6 Xposition Yposition Zposition Zrotation Xrotation Yrotation 
					JOINT UpperArm_R
					{
						OFFSET -5.34813 0.0 0.0
						CHANNELS 6 Xposition Yposition Zposition Zrotation Xrotation Yrotation 
						JOINT LowerArm_R
						{
							OFFSET -24.3289 0.000322201 0.0
							CHANNELS 6 Xposition Yposition Zposition Zrotation Xrotation Yrotation 
							JOINT Hand_R
							{
								OFFSET -22.2915 -0.000108084 0.0
								CHANNELS 6 Xposition Yposition Zposition Zrotation Xrotation Yrotation 
								End Site
								{
									OFFSET 0.0 0.0 0.0
								}
							}
						}
					}
				}
			}
		}
		JOINT UpperLeg_L
		{
			OFFSET -2.19248 -6.46944 0.0
			CHANNELS 6 Xposition Yposition Zposition Zrotation Xrotation Yrotation 
			JOINT LowerLeg_L
			{
				OFFSET 39.0811 0.0 -1.23785e-05
				CHANNELS 6 Xposition Yposition Zposition Zrotation Xrotation Yrotation 
				JOINT Foot_L
				{
					OFFSET 40.9854 0.0 -1.26872e-05
					CHANNELS 6 Xposition Yposition Zposition Zrotation Xrotation Yrotation 
					JOINT Toes_L
					{
						OFFSET 11.7543 0.0 0.0
						CHANNELS 6 Xposition Yposition Zposition Zrotation Xrotation Yrotation 
						End Site
						{
							OFFSET 0.0 0.0 0.0
						}
					}
				}
			}
		}
		JOINT UpperLeg_R
		{
			OFFSET -2.19251 6.46944 0.0
			CHANNELS 6 Xposition Yposition Zposition Zrotation Xrotation Yrotation 
			JOINT LowerLeg_R
			{
				OFFSET -39.0811 -0.00228153 -0.0401928
				CHANNELS 6 Xposition Yposition Zposition Zrotation Xrotation Yrotation 
				JOINT Foot_R
				{
					OFFSET -40.9854 0.0 0.0
					CHANNELS 6 Xposition Yposition Zposition Zrotation Xrotation Yrotation 
					JOINT Toes_R
					{
						OFFSET -11.7543 0.0 0.0
						CHANNELS 6 Xposition Yposition Zposition Zrotation Xrotation Yrotation 
						End Site
						{
							OFFSET 0.0 0.0 0.0
						}
					}
				}
			}
		}
	}
}
MOTION
Frames:	4
Frame Time:	0.0333333
0.000000 0.000000 0.000000 0.000000 0.000000 -0.000000 1.484380 93.365700 -2.010400 88.125100 2.776420 1.643770 15.735700 0.000005 -0.000001 99.219100 85.835200 -98.529200 8.984550 -0.406207 -0.000000 0.448853 1.290040 1.373740 16.377300 -0.000001 -0.000001 -0.046040 0.875466 0.797655 6.456720 -0.000001 -0.000000 -12.311300 -1.620250 4.559700 12.994200 -0.242716 4.980390 -92.756200 8.475900 -71.911900 5.348090 -0.000007 -0.000001 -70.380000 14.152300 -9.238590 24.328600 0.000019 0.000005 4.776420 23.279800 -11.936700 22.291600 -0.000001 0.000005 -3.500010 5.035480 6.551030 12.994500 -0.242716 -4.980390 88.165200 5.812900 -72.448400 -5.348130 -0.000001 -0.000004 -70.389500 27.953300 -5.442990 -24.328900 0.000322 -0.000009 -0.178659 -0.743276 -13.440400 -22.291500 -0.000108 -0.000004 0.917189 5.303820 -0.034898 -2.192480 -6.469440 -0.000000 -175.183000 -9.131720 -2.544770 39.081100 -0.000007 -0.000012 0.017931 -0.060538 16.499700 40.985400 -0.000006 -0.000013 1.423800 15.803300 -67.758700 11.754300 -0.000000 0.000003 -0.000983 0.182792 -9.161880 -2.192510 6.469440 -0.000001 175.109000 12.169400 -177.937000 -39.081100 -0.002282 -0.040193 0.002654 0.004323 9.028740 -40.985400 0.000008 0.000006 -10.942100 9.733640 -62.564200 -11.754300 -0.000006 -0.000006 -0.010507 0.275052 -5.397710
0.000000 0.000000 0.000000 0.000000 0.000000 -0.000000 1.452400 93.411500 -1.990870 88.228400 3.172910 1.130980 15.735700 0.000005 -0.000001 99.938300 86.046000 -98.907600 8.984550 -0.406207 -0.000000 0.012689 1.294760 2.059970 16.377300 -0.000001 -0.000001 -0.858683 0.917915 1.313680 6.456720 -0.000001 -0.000000 -13.080200 -1.771610 5.795360 12.994200 -0.242716 4.980390 -92.730700 8.192200 -71.493400 5.348090 -0.000007 -0.000001 -71.444800 7.393830 -10.742400 24.328600 0.000019 0.000005 3.624300 24.917700 -8.552610 22.291600 -0.000001 0.000005 -8.173340 5.106850 4.919050 12.994500 -0.242716 -4.980390 88.202500 5.662210 -72.355000 -5.348130 -0.000001 -0.000004 -70.125900 25.918200 -5.547200 -24.328900 0.000322 -0.000009 -0.234566 -1.124250 -11.731100 -22.291500 -0.000108 -0.000004 1.316000 5.322550 -0.569139 -2.192480 -6.469440 -0.000000 -175.308000 -9.284870 -2.837080 39.081100 -0.000007 -0.000012 0.016040 -0.055974 15.990300 40.985400 -0.000006 -0.000013 1.397350 16.329500 -67.641100 11.754300 -0.000000 0.000003 -0.001165 0.185355 -9.057720 -2.192510 6.469440 -0.000001 175.129000 12.555700 -178.149000 -39.081100 -0.002282 -0.040193 0.003733 -0.002607 8.541000 -40.985400 0.000008 0.000006 -10.877800 9.608230 -62.360500 -11.754300 -0.000006 -0.000006 -0.010768 0.276955 -5.319850
0.000000 0.000000 0.000000 0.000000 0.000000 -0.000000 1.404030 93.443300 -1.905120 88.380000 3.635130 0.650671 15.735700 0.000005 -0.000001 100.464000 86.343400 -98.994900 8.984550 -0.406207 -0.000000 -0.588402 1.220850 2.943370 16.377300 -0.000001 -0.000001 -1.517850 0.935028 1.887540 6.456720 -0.000001 -0.000000 -13.615800 -1.796570 7.091370 12.994200 -0.242716 4.980390 -92.684600 7.834310 -71.016700 5.348090 -0.000007 -0.000001 -71.033500 0.436463 -13.048700 24.328600 0.000019 0.000005 2.015040 28.090400 -4.276800 22.291600 -0.000001 0.000005 -17.036800 5.211660 2.365720 12.994500 -0.242716 -4.980390 88.254100 5.488120 -72.322400 -5.348130 -0.000001 -0.000004 -69.774100 23.009100 -5.419640 -24.328900 0.000322 -0.000009 -0.244833 -1.441140 -9.603830 -22.291500 -0.000108 -0.000004 2.210880 5.311240 -0.246395 -2.192480 -6.469440 -0.000000 -175.443000 -9.572090 -3.058120 39.081100 -0.000007 -0.000012 0.013913 -0.050201 15.491200 40.985400 -0.000006 -0.000013 1.388340 17.051900 -67.554400 11.754300 -0.000000 0.000003 -0.001254 0.186587 -9.007650 -2.192510 6.469440 -0.000001 175.076000 13.010400 -178.215000 -39.081100 -0.002282 -0.040193 0.004695 -0.009635 7.991000 -40.985400 0.000008 0.000006 -11.100100 9.554610 -62.200000 -11.754300 -0.000006 -0.000006 -0.010768 0.276958 -5.319700
0.000000 0.000000 0.000000 0.000000 0.000000 -0.000000 1.339370 93.456400 -1.783580 88.527100 4.062260 0.251249 15.735700 0.000005 -0.000001 100.261000 86.686800 -98.252000 8.984550 -0.406207 -0.000000 -1.260340 1.021970 4.028130 16.377300 -0.000001 -0.000001 -2.228720 0.999244 2.228380 6.456720 -0.000001 -0.000000 -13.678300 -1.803940 8.472520 12.994200 -0.242716 4.980390 -92.467000 7.016310 -70.571700 5.348090 -0.000007 -0.000001 -69.571600 -8.725740 -15.792700 24.328600 0.000019 0.000005 -0.001632 32.981600 -0.000004 22.291600 -0.000001 0.000005 -27.104900 5.272440 0.824252 12.994500 -0.242716 -4.980390 88.328600 5.211750 -72.191000 -5.348130 -0.000001 -0.000004 -69.127000 20.231300 -5.189440 -24.328900 0.000322 -0.000009 -0.152796 -1.148640 -7.521740 -22.291500 -0.000108 -0.000004 3.292210 5.298500 0.113547 -2.192480 -6.469440 -0.000000 -175.559000 -9.807860 -3.244070 39.081100 -0.000007 -0.000012 0.012288 -0.045468 15.123300 40.985400 -0.000006 -0.000013 1.368920 17.644800 -67.471600 11.754300 -0.000000 0.000003 -0.000990 0.182894 -9.157720 -2.192510 6.469440 -0.000001 175.099000 13.281300 -178.423000 -39.081100 -0.002282 -0.040193 0.004060 -0.005170 7.905510 -40.985400 0.000008 0.000006 -10.585800 9.315550 -62.465600 -11.754300 -0.000006 -0.000006 -0.010990 0.278563 -5.254040
